<?xml version="1.0" standalone="no"?>
<!DOCTYPE svg PUBLIC "-//W3C//DTD SVG 1.1//EN" "https://www.w3.org/Graphics/SVG/1.1/DTD/svg11.dtd">

<svg width="800" height="400" version="1.1" xmlns="http://www.w3.org/2000/svg">
    <ellipse stroke="black" stroke-width="1" fill="none" cx="39.5" cy="222.5" rx="30" ry="30"/>
    <text x="30.5" y="228.5" font-family="Times New Roman" font-size="20">z&#8320;</text>
    <ellipse stroke="black" stroke-width="1" fill="none" cx="145.5" cy="222.5" rx="30" ry="30"/>
    <text x="136.5" y="228.5" font-family="Times New Roman" font-size="20">z&#8321;</text>
    <ellipse stroke="black" stroke-width="1" fill="none" cx="261.5" cy="222.5" rx="30" ry="30"/>
    <text x="252.5" y="228.5" font-family="Times New Roman" font-size="20">z&#8322;</text>
    <ellipse stroke="black" stroke-width="1" fill="none" cx="376.5" cy="222.5" rx="30" ry="30"/>
    <text x="367.5" y="228.5" font-family="Times New Roman" font-size="20">z&#8323;</text>
    <ellipse stroke="black" stroke-width="1" fill="none" cx="490.5" cy="222.5" rx="30" ry="30"/>
    <text x="481.5" y="228.5" font-family="Times New Roman" font-size="20">z&#8324;</text>
    <ellipse stroke="black" stroke-width="1" fill="none" cx="622.5" cy="222.5" rx="30" ry="30"/>
    <text x="613.5" y="228.5" font-family="Times New Roman" font-size="20">z&#8325;</text>
    <ellipse stroke="black" stroke-width="1" fill="none" cx="743.5" cy="222.5" rx="30" ry="30"/>
    <text x="734.5" y="228.5" font-family="Times New Roman" font-size="20">z&#8326;</text>
    <ellipse stroke="black" stroke-width="1" fill="none" cx="743.5" cy="222.5" rx="24" ry="24"/>
    <polygon stroke="black" stroke-width="1" points="69.5,222.5 115.5,222.5"/>
    <polygon fill="black" stroke-width="1" points="115.5,222.5 107.5,217.5 107.5,227.5"/>
    <text x="85.5" y="213.5" font-family="Times New Roman" font-size="20">A</text>
    <polygon stroke="black" stroke-width="1" points="175.5,222.5 231.5,222.5"/>
    <polygon fill="black" stroke-width="1" points="231.5,222.5 223.5,217.5 223.5,227.5"/>
    <text x="196.5" y="213.5" font-family="Times New Roman" font-size="20">N</text>
    <polygon stroke="black" stroke-width="1" points="291.5,222.5 346.5,222.5"/>
    <polygon fill="black" stroke-width="1" points="346.5,222.5 338.5,217.5 338.5,227.5"/>
    <text x="311.5" y="213.5" font-family="Times New Roman" font-size="20">A</text>
    <polygon stroke="black" stroke-width="1" points="406.5,222.5 460.5,222.5"/>
    <polygon fill="black" stroke-width="1" points="460.5,222.5 452.5,217.5 452.5,227.5"/>
    <text x="426.5" y="213.5" font-family="Times New Roman" font-size="20">N</text>
    <polygon stroke="black" stroke-width="1" points="520.5,222.5 592.5,222.5"/>
    <polygon fill="black" stroke-width="1" points="592.5,222.5 584.5,217.5 584.5,227.5"/>
    <text x="549.5" y="213.5" font-family="Times New Roman" font-size="20">A</text>
    <polygon stroke="black" stroke-width="1" points="652.5,222.5 713.5,222.5"/>
    <polygon fill="black" stroke-width="1" points="713.5,222.5 705.5,217.5 705.5,227.5"/>
    <text x="677.5" y="213.5" font-family="Times New Roman" font-size="20">S</text>
    <path stroke="black" stroke-width="1" fill="none" d="M 124.21,243.227 A 62.51,62.51 0 0 1 60.79,243.227"/>
    <polygon fill="black" stroke-width="1" points="60.79,243.227 65.148,251.594 70.221,242.976"/>
    <text x="81.5" y="272.5" font-family="Times New Roman" font-size="20">!N</text>
    <path stroke="black" stroke-width="1" fill="none" d="M 247.957,249.178 A 117.842,117.842 0 0 1 53.043,249.178"/>
    <polygon fill="black" stroke-width="1" points="53.043,249.178 53.405,258.605 61.675,252.984"/>
    <text x="139.5" y="321.5" font-family="Times New Roman" font-size="20">!A</text>
    <path stroke="black" stroke-width="1" fill="none" d="M 278.7,198.001 A 130.256,130.256 0 0 1 473.3,198.001"/>
    <polygon fill="black" stroke-width="1" points="278.7,198.001 287.754,195.349 280.284,188.701"/>
    <text x="365.5" y="145.5" font-family="Times New Roman" font-size="20">!A</text>
    <path stroke="black" stroke-width="1" fill="none" d="M 394.421,198.51 A 143.13,143.13 0 0 1 604.579,198.51"/>
    <polygon fill="black" stroke-width="1" points="394.421,198.51 403.524,196.031 396.182,189.241"/>
    <text x="490.5" y="143.5" font-family="Times New Roman" font-size="20">!S</text>
    <path stroke="black" stroke-width="1" fill="none" d="M 162.09,197.585 A 129.663,129.663 0 0 1 359.91,197.585"/>
    <polygon fill="black" stroke-width="1" points="162.09,197.585 171.077,194.715 163.449,188.249"/>
    <text x="250.5" y="142.5" font-family="Times New Roman" font-size="20">!N</text>
    <path stroke="black" stroke-width="1" fill="none" d="M 26.275,195.703 A 22.5,22.5 0 1 1 52.725,195.703"/>
    <text x="28.5" y="146.5" font-family="Times New Roman" font-size="20">!A</text>
    <polygon fill="black" stroke-width="1" points="52.725,195.703 61.473,192.17 53.382,186.292"/>
</svg>
