<?xml version="1.0" standalone="no"?>
<!DOCTYPE svg PUBLIC "-//W3C//DTD SVG 1.1//EN" "https://www.w3.org/Graphics/SVG/1.1/DTD/svg11.dtd">

<svg width="800" height="600" version="1.1" xmlns="http://www.w3.org/2000/svg">
    <ellipse stroke="black" stroke-width="1" fill="none" cx="112.5" cy="222.5" rx="30" ry="30"/>
    <text x="103.5" y="228.5" font-family="Times New Roman" font-size="20">z&#8320;</text>
    <ellipse stroke="black" stroke-width="1" fill="none" cx="223.5" cy="222.5" rx="30" ry="30"/>
    <text x="214.5" y="228.5" font-family="Times New Roman" font-size="20">z&#8321;</text>
    <ellipse stroke="black" stroke-width="1" fill="none" cx="340.5" cy="222.5" rx="30" ry="30"/>
    <text x="331.5" y="228.5" font-family="Times New Roman" font-size="20">z&#8322;</text>
    <ellipse stroke="black" stroke-width="1" fill="none" cx="437.5" cy="222.5" rx="30" ry="30"/>
    <text x="428.5" y="228.5" font-family="Times New Roman" font-size="20">z&#8323;</text>
    <ellipse stroke="black" stroke-width="1" fill="none" cx="548.5" cy="222.5" rx="30" ry="30"/>
    <text x="539.5" y="228.5" font-family="Times New Roman" font-size="20">z&#8324;</text>
    <ellipse stroke="black" stroke-width="1" fill="none" cx="654.5" cy="222.5" rx="30" ry="30"/>
    <text x="645.5" y="228.5" font-family="Times New Roman" font-size="20">z&#8325;</text>
    <ellipse stroke="black" stroke-width="1" fill="none" cx="754.5" cy="222.5" rx="30" ry="30"/>
    <text x="745.5" y="228.5" font-family="Times New Roman" font-size="20">z&#8326;</text>
    <ellipse stroke="black" stroke-width="1" fill="none" cx="754.5" cy="222.5" rx="24" ry="24"/>
    <polygon stroke="black" stroke-width="1" points="142.5,222.5 193.5,222.5"/>
    <polygon fill="black" stroke-width="1" points="193.5,222.5 185.5,217.5 185.5,227.5"/>
    <text x="160.5" y="213.5" font-family="Times New Roman" font-size="20">A</text>
    <polygon stroke="black" stroke-width="1" points="253.5,222.5 310.5,222.5"/>
    <polygon fill="black" stroke-width="1" points="310.5,222.5 302.5,217.5 302.5,227.5"/>
    <text x="274.5" y="213.5" font-family="Times New Roman" font-size="20">N</text>
    <polygon stroke="black" stroke-width="1" points="370.5,222.5 407.5,222.5"/>
    <polygon fill="black" stroke-width="1" points="407.5,222.5 399.5,217.5 399.5,227.5"/>
    <text x="381.5" y="213.5" font-family="Times New Roman" font-size="20">A</text>
    <polygon stroke="black" stroke-width="1" points="467.5,222.5 518.5,222.5"/>
    <polygon fill="black" stroke-width="1" points="518.5,222.5 510.5,217.5 510.5,227.5"/>
    <text x="485.5" y="213.5" font-family="Times New Roman" font-size="20">N</text>
    <polygon stroke="black" stroke-width="1" points="578.5,222.5 624.5,222.5"/>
    <polygon fill="black" stroke-width="1" points="624.5,222.5 616.5,217.5 616.5,227.5"/>
    <text x="594.5" y="213.5" font-family="Times New Roman" font-size="20">A</text>
    <polygon stroke="black" stroke-width="1" points="684.5,222.5 724.5,222.5"/>
    <polygon fill="black" stroke-width="1" points="724.5,222.5 716.5,217.5 716.5,227.5"/>
    <text x="698.5" y="213.5" font-family="Times New Roman" font-size="20">S</text>
    <path stroke="black" stroke-width="1" fill="none" d="M 201.744,242.792 A 67.091,67.091 0 0 1 134.256,242.792"/>
    <polygon fill="black" stroke-width="1" points="134.256,242.792 138.656,251.137 143.685,242.494"/>
    <text x="157.5" y="272.5" font-family="Times New Roman" font-size="20">!N</text>
    <path stroke="black" stroke-width="1" fill="none" d="M 326.412,248.901 A 122.152,122.152 0 0 1 126.588,248.901"/>
    <polygon fill="black" stroke-width="1" points="126.588,248.901 127.101,258.321 135.281,252.568"/>
    <text x="215.5" y="321.5" font-family="Times New Roman" font-size="20">!A</text>
    <path stroke="black" stroke-width="1" fill="none" d="M 356.005,196.919 A 113.536,113.536 0 0 1 532.995,196.919"/>
    <polygon fill="black" stroke-width="1" points="356.005,196.919 364.914,193.816 357.119,187.551"/>
    <text x="433.5" y="145.5" font-family="Times New Roman" font-size="20">!A</text>
    <path stroke="black" stroke-width="1" fill="none" d="M 453.341,197.116 A 119.498,119.498 0 0 1 638.659,197.116"/>
    <polygon fill="black" stroke-width="1" points="453.341,197.116 462.27,194.07 454.516,187.756"/>
    <text x="537.5" y="144.5" font-family="Times New Roman" font-size="20">!S</text>
    <path stroke="black" stroke-width="1" fill="none" d="M 238.7,196.732 A 116.371,116.371 0 0 1 422.3,196.732"/>
    <polygon fill="black" stroke-width="1" points="238.7,196.732 247.561,193.494 239.673,187.349"/>
    <text x="319.5" y="142.5" font-family="Times New Roman" font-size="20">!N</text>
    <path stroke="black" stroke-width="1" fill="none" d="M 99.275,195.703 A 22.5,22.5 0 1 1 125.725,195.703"/>
    <text x="101.5" y="146.5" font-family="Times New Roman" font-size="20">!A</text>
    <polygon fill="black" stroke-width="1" points="125.725,195.703 134.473,192.17 126.382,186.292"/>
    <polygon stroke="black" stroke-width="1" points="77.5,222.5 82.5,222.5"/>
    <polygon fill="black" stroke-width="1" points="82.5,222.5 74.5,217.5 74.5,227.5"/>
    <polygon stroke="black" stroke-width="1" points="41.5,222.5 82.5,222.5"/>
    <polygon fill="black" stroke-width="1" points="82.5,222.5 74.5,217.5 74.5,227.5"/>
</svg>
