<?xml version="1.0" standalone="no"?>
<!DOCTYPE svg PUBLIC "-//W3C//DTD SVG 1.1//EN" "https://www.w3.org/Graphics/SVG/1.1/DTD/svg11.dtd">

<svg width="800" height="600" version="1.1" xmlns="http://www.w3.org/2000/svg">
    <ellipse stroke="black" stroke-width="1" fill="none" cx="68.5" cy="222.5" rx="30" ry="30"/>
    <text x="59.5" y="228.5" font-family="Times New Roman" font-size="20">z&#8320;</text>
    <ellipse stroke="black" stroke-width="1" fill="none" cx="68.5" cy="222.5" rx="24" ry="24"/>
    <ellipse stroke="black" stroke-width="1" fill="none" cx="169.5" cy="222.5" rx="30" ry="30"/>
    <text x="160.5" y="228.5" font-family="Times New Roman" font-size="20">z&#8321;</text>
    <ellipse stroke="black" stroke-width="1" fill="none" cx="270.5" cy="222.5" rx="30" ry="30"/>
    <text x="261.5" y="228.5" font-family="Times New Roman" font-size="20">z&#8322;</text>
    <ellipse stroke="black" stroke-width="1" fill="none" cx="370.5" cy="222.5" rx="30" ry="30"/>
    <text x="361.5" y="228.5" font-family="Times New Roman" font-size="20">z&#8323;</text>
    <ellipse stroke="black" stroke-width="1" fill="none" cx="472.5" cy="222.5" rx="30" ry="30"/>
    <text x="463.5" y="228.5" font-family="Times New Roman" font-size="20">z&#8324;</text>
    <ellipse stroke="black" stroke-width="1" fill="none" cx="574.5" cy="222.5" rx="30" ry="30"/>
    <text x="565.5" y="228.5" font-family="Times New Roman" font-size="20">z&#8325;</text>
    <ellipse stroke="black" stroke-width="1" fill="none" cx="667.5" cy="222.5" rx="30" ry="30"/>
    <text x="658.5" y="228.5" font-family="Times New Roman" font-size="20">z&#8326;</text>
    <ellipse stroke="black" stroke-width="1" fill="none" cx="767.5" cy="222.5" rx="30" ry="30"/>
    <text x="758.5" y="228.5" font-family="Times New Roman" font-size="20">z&#8327;</text>
    <ellipse stroke="black" stroke-width="1" fill="none" cx="767.5" cy="222.5" rx="24" ry="24"/>
    <polygon stroke="black" stroke-width="1" points="98.5,222.5 139.5,222.5"/>
    <polygon fill="black" stroke-width="1" points="139.5,222.5 131.5,217.5 131.5,227.5"/>
    <text x="112.5" y="213.5" font-family="Times New Roman" font-size="20">E</text>
    <polygon stroke="black" stroke-width="1" points="199.5,222.5 240.5,222.5"/>
    <polygon fill="black" stroke-width="1" points="240.5,222.5 232.5,217.5 232.5,227.5"/>
    <text x="216.5" y="213.5" font-family="Times New Roman" font-size="20">I</text>
    <polygon stroke="black" stroke-width="1" points="300.5,222.5 340.5,222.5"/>
    <polygon fill="black" stroke-width="1" points="340.5,222.5 332.5,217.5 332.5,227.5"/>
    <text x="314.5" y="213.5" font-family="Times New Roman" font-size="20">S</text>
    <polygon stroke="black" stroke-width="1" points="400.5,222.5 442.5,222.5"/>
    <polygon fill="black" stroke-width="1" points="442.5,222.5 434.5,217.5 434.5,227.5"/>
    <text x="414.5" y="213.5" font-family="Times New Roman" font-size="20">B</text>
    <polygon stroke="black" stroke-width="1" points="502.5,222.5 544.5,222.5"/>
    <polygon fill="black" stroke-width="1" points="544.5,222.5 536.5,217.5 536.5,227.5"/>
    <text x="517.5" y="213.5" font-family="Times New Roman" font-size="20">E</text>
    <polygon stroke="black" stroke-width="1" points="604.5,222.5 637.5,222.5"/>
    <polygon fill="black" stroke-width="1" points="637.5,222.5 629.5,217.5 629.5,227.5"/>
    <text x="617.5" y="213.5" font-family="Times New Roman" font-size="20">I</text>
    <path stroke="black" stroke-width="1" fill="none" d="M 148.713,243.668 A 58.135,58.135 0 0 1 89.287,243.668"/>
    <polygon fill="black" stroke-width="1" points="89.287,243.668 93.608,252.055 98.719,243.459"/>
    <text x="112.5" y="272.5" font-family="Times New Roman" font-size="20">!I</text>
    <path stroke="black" stroke-width="1" fill="none" d="M 258.961,250.08 A 104.306,104.306 0 0 1 80.039,250.08"/>
    <polygon fill="black" stroke-width="1" points="80.039,250.08 79.864,259.513 88.441,254.371"/>
    <text x="160.5" y="321.5" font-family="Times New Roman" font-size="20">!S</text>
    <path stroke="black" stroke-width="1" fill="none" d="M 55.275,195.703 A 22.5,22.5 0 1 1 81.725,195.703"/>
    <text x="59.5" y="146.5" font-family="Times New Roman" font-size="20">!E</text>
    <polygon fill="black" stroke-width="1" points="81.725,195.703 90.473,192.17 82.382,186.292"/>
    <polygon stroke="black" stroke-width="1" points="697.5,222.5 737.5,222.5"/>
    <polygon fill="black" stroke-width="1" points="737.5,222.5 729.5,217.5 729.5,227.5"/>
    <text x="710.5" y="213.5" font-family="Times New Roman" font-size="20">N</text>
    <path stroke="black" stroke-width="1" fill="none" d="M 361.47,251.059 A 154.361,154.361 0 0 1 77.53,251.059"/>
    <polygon fill="black" stroke-width="1" points="77.53,251.059 76.072,260.38 85.269,256.454"/>
    <text x="209.5" y="365.5" font-family="Times New Roman" font-size="20">!B</text>
    <path stroke="black" stroke-width="1" fill="none" d="M 464.223,251.308 A 206.412,206.412 0 0 1 76.777,251.308"/>
    <polygon fill="black" stroke-width="1" points="76.777,251.308 74.846,260.542 84.232,257.09"/>
    <text x="261.5" y="407.5" font-family="Times New Roman" font-size="20">E!</text>
    <path stroke="black" stroke-width="1" fill="none" d="M 190.076,200.691 A 264.681,264.681 0 0 1 553.924,200.691"/>
    <polygon fill="black" stroke-width="1" points="190.076,200.691 199.324,198.824 192.45,191.56"/>
    <text x="365.5" y="119.5" font-family="Times New Roman" font-size="20">!I</text>
    <path stroke="black" stroke-width="1" fill="none" d="M 291.226,200.834 A 260.79,260.79 0 0 1 646.774,200.834"/>
    <polygon fill="black" stroke-width="1" points="291.226,200.834 300.488,199.039 293.671,191.722"/>
    <text x="458.5" y="121.5" font-family="Times New Roman" font-size="20">!N</text>
    <polygon stroke="black" stroke-width="1" points="11.5,222.5 38.5,222.5"/>
    <polygon fill="black" stroke-width="1" points="38.5,222.5 30.5,217.5 30.5,227.5"/>
</svg>
